<?xml version="1.0" encoding="UTF-8"?>
<svg xmlns="http://www.w3.org/2000/svg" xmlns:xlink="http://www.w3.org/1999/xlink" width="32px" height="32px" viewBox="0 0 32 32" version="1.1">
<g id="surface1">
<path style=" stroke:none;fill-rule:nonzero;fill:rgb(69.803922%,8.627451%,8.627451%);fill-opacity:1;" d="M 31.789062 15.980469 C 31.789062 24.710938 24.710938 31.789062 15.980469 31.789062 C 7.253906 31.789062 0.175781 24.710938 0.175781 15.980469 C 0.175781 7.253906 7.253906 0.175781 15.980469 0.175781 C 24.710938 0.175781 31.789062 7.253906 31.789062 15.980469 Z M 31.789062 15.980469 "/>
<path style=" stroke:none;fill-rule:nonzero;fill:rgb(100%,100%,100%);fill-opacity:1;" d="M 7.234375 9.90625 L 10.820312 9.90625 C 11.101562 9.90625 11.308594 10.117188 11.308594 10.398438 L 11.308594 19.953125 C 11.308594 20.230469 11.101562 20.441406 10.820312 20.441406 L 7.234375 20.441406 Z M 7.234375 9.90625 "/>
<path style=" stroke:none;fill-rule:nonzero;fill:rgb(100%,100%,100%);fill-opacity:1;" d="M 23.394531 17.84375 C 24.132812 17.84375 24.726562 18.441406 24.726562 19.179688 C 24.726562 19.917969 24.132812 20.511719 23.394531 20.511719 L 19.214844 20.511719 C 19.953125 21.8125 19.953125 25.816406 18.230469 26.308594 C 17.914062 26.414062 17.5625 26.132812 17.527344 25.816406 C 17.210938 23.007812 15.527344 19.53125 13.769531 19.425781 L 12.398438 19.425781 L 12.398438 11.03125 L 13.101562 11.03125 C 13.488281 11.03125 13.839844 10.890625 14.15625 10.679688 C 14.929688 10.152344 16.261719 9.835938 17.527344 9.871094 L 22.375 9.871094 C 23.113281 9.871094 23.710938 10.46875 23.710938 11.203125 C 23.710938 11.941406 23.113281 12.539062 22.375 12.539062 L 23.007812 12.539062 C 23.746094 12.539062 24.34375 13.136719 24.34375 13.875 C 24.34375 14.613281 23.746094 15.210938 23.007812 15.210938 L 23.394531 15.210938 C 24.132812 15.210938 24.726562 15.804688 24.726562 16.542969 C 24.726562 17.28125 24.132812 17.84375 23.394531 17.84375 Z M 23.394531 17.84375 "/>
</g>
</svg>
