<?xml version="1.0" encoding="UTF-8"?>
<svg xmlns="http://www.w3.org/2000/svg" xmlns:xlink="http://www.w3.org/1999/xlink" width="32px" height="32px" viewBox="0 0 32 32" version="1.1">
<g id="surface1">
<path style=" stroke:none;fill-rule:nonzero;fill:rgb(10.196078%,77.647059%,10.196078%);fill-opacity:1;" d="M 31.789062 15.980469 C 31.789062 24.710938 24.710938 31.789062 15.980469 31.789062 C 7.253906 31.789062 0.175781 24.710938 0.175781 15.980469 C 0.175781 7.253906 7.253906 0.175781 15.980469 0.175781 C 24.710938 0.175781 31.789062 7.253906 31.789062 15.980469 Z M 31.789062 15.980469 "/>
<path style=" stroke:none;fill-rule:nonzero;fill:rgb(100%,100%,100%);fill-opacity:1;" d="M 7.25 23.46875 L 10.835938 23.46875 C 11.117188 23.46875 11.34375 23.242188 11.34375 22.960938 L 11.34375 13.40625 C 11.34375 13.125 11.117188 12.898438 10.835938 12.898438 L 7.25 12.898438 Z M 7.25 23.46875 "/>
<path style=" stroke:none;fill-rule:nonzero;fill:rgb(100%,100%,100%);fill-opacity:1;" d="M 23.390625 15.535156 C 24.121094 15.535156 24.714844 14.945312 24.714844 14.214844 C 24.714844 13.484375 24.121094 12.890625 23.390625 12.890625 L 19.199219 12.890625 C 19.929688 11.578125 19.953125 7.589844 18.222656 7.109375 C 17.894531 7.019531 17.570312 7.269531 17.53125 7.609375 C 17.226562 10.40625 15.515625 13.886719 13.773438 13.988281 L 12.417969 13.988281 L 12.417969 22.332031 L 13.121094 22.332031 C 13.5 22.332031 13.863281 22.460938 14.175781 22.667969 C 14.964844 23.191406 16.292969 23.496094 17.566406 23.464844 L 18.183594 23.464844 L 18.183594 23.46875 L 22.410156 23.46875 C 23.140625 23.46875 23.730469 22.875 23.730469 22.144531 C 23.730469 21.414062 23.140625 20.824219 22.410156 20.824219 L 23 20.824219 C 23.730469 20.824219 24.320312 20.230469 24.320312 19.5 C 24.320312 18.769531 23.730469 18.179688 23 18.179688 L 23.390625 18.179688 C 24.121094 18.179688 24.714844 17.585938 24.714844 16.855469 C 24.714844 16.125 24.121094 15.535156 23.390625 15.535156 Z M 23.390625 15.535156 "/>
</g>
</svg>
