<?xml version="1.0" encoding="UTF-8"?>
<svg xmlns="http://www.w3.org/2000/svg" xmlns:xlink="http://www.w3.org/1999/xlink" width="16px" height="16px" viewBox="0 0 16 16" version="1.1">
<g id="surface1">
<path style=" stroke:none;fill-rule:nonzero;fill:rgb(69.803922%,8.627451%,8.627451%);fill-opacity:1;" d="M 15.894531 7.992188 C 15.894531 12.355469 12.355469 15.894531 7.992188 15.894531 C 3.625 15.894531 0.0898438 12.355469 0.0898438 7.992188 C 0.0898438 3.625 3.625 0.0898438 7.992188 0.0898438 C 12.355469 0.0898438 15.894531 3.625 15.894531 7.992188 Z M 15.894531 7.992188 "/>
<path style=" stroke:none;fill-rule:nonzero;fill:rgb(100%,100%,100%);fill-opacity:1;" d="M 3.617188 4.953125 L 5.410156 4.953125 C 5.550781 4.953125 5.65625 5.058594 5.65625 5.199219 L 5.65625 9.976562 C 5.65625 10.117188 5.550781 10.222656 5.410156 10.222656 L 3.617188 10.222656 Z M 3.617188 4.953125 "/>
<path style=" stroke:none;fill-rule:nonzero;fill:rgb(100%,100%,100%);fill-opacity:1;" d="M 11.695312 8.921875 C 12.066406 8.921875 12.363281 9.21875 12.363281 9.589844 C 12.363281 9.957031 12.066406 10.257812 11.695312 10.257812 L 9.605469 10.257812 C 9.976562 10.90625 9.976562 12.910156 9.113281 13.15625 C 8.957031 13.207031 8.78125 13.066406 8.765625 12.910156 C 8.605469 11.503906 7.761719 9.765625 6.882812 9.710938 L 6.199219 9.710938 L 6.199219 5.515625 L 6.550781 5.515625 C 6.742188 5.515625 6.917969 5.445312 7.078125 5.339844 C 7.464844 5.074219 8.132812 4.917969 8.765625 4.933594 L 11.1875 4.933594 C 11.554688 4.933594 11.855469 5.234375 11.855469 5.601562 C 11.855469 5.972656 11.554688 6.269531 11.1875 6.269531 L 11.503906 6.269531 C 11.871094 6.269531 12.171875 6.570312 12.171875 6.9375 C 12.171875 7.304688 11.871094 7.605469 11.503906 7.605469 L 11.695312 7.605469 C 12.066406 7.605469 12.363281 7.902344 12.363281 8.273438 C 12.363281 8.640625 12.066406 8.921875 11.695312 8.921875 Z M 11.695312 8.921875 "/>
</g>
</svg>
