<?xml version="1.0" encoding="UTF-8"?>
<svg xmlns="http://www.w3.org/2000/svg" xmlns:xlink="http://www.w3.org/1999/xlink" width="16px" height="16px" viewBox="0 0 16 16" version="1.1">
<g id="surface1">
<path style=" stroke:none;fill-rule:nonzero;fill:rgb(10.196078%,77.647059%,10.196078%);fill-opacity:1;" d="M 15.894531 7.992188 C 15.894531 12.355469 12.355469 15.894531 7.992188 15.894531 C 3.625 15.894531 0.0898438 12.355469 0.0898438 7.992188 C 0.0898438 3.625 3.625 0.0898438 7.992188 0.0898438 C 12.355469 0.0898438 15.894531 3.625 15.894531 7.992188 Z M 15.894531 7.992188 "/>
<path style=" stroke:none;fill-rule:nonzero;fill:rgb(100%,100%,100%);fill-opacity:1;" d="M 3.625 11.734375 L 5.417969 11.734375 C 5.558594 11.734375 5.671875 11.621094 5.671875 11.480469 L 5.671875 6.703125 C 5.671875 6.5625 5.558594 6.449219 5.417969 6.449219 L 3.625 6.449219 Z M 3.625 11.734375 "/>
<path style=" stroke:none;fill-rule:nonzero;fill:rgb(100%,100%,100%);fill-opacity:1;" d="M 11.695312 7.769531 C 12.0625 7.769531 12.355469 7.472656 12.355469 7.105469 C 12.355469 6.742188 12.0625 6.445312 11.695312 6.445312 L 9.601562 6.445312 C 9.964844 5.789062 9.976562 3.792969 9.109375 3.554688 C 8.945312 3.507812 8.785156 3.632812 8.765625 3.804688 C 8.613281 5.203125 7.757812 6.945312 6.886719 6.992188 L 6.207031 6.992188 L 6.207031 11.164062 L 6.5625 11.164062 C 6.75 11.164062 6.929688 11.230469 7.089844 11.335938 C 7.484375 11.597656 8.148438 11.75 8.785156 11.734375 L 11.203125 11.734375 C 11.570312 11.734375 11.867188 11.4375 11.867188 11.074219 C 11.867188 10.707031 11.570312 10.410156 11.203125 10.410156 L 11.5 10.410156 C 11.863281 10.410156 12.160156 10.117188 12.160156 9.75 C 12.160156 9.386719 11.863281 9.089844 11.5 9.089844 L 11.695312 9.089844 C 12.0625 9.089844 12.355469 8.792969 12.355469 8.429688 C 12.355469 8.0625 12.0625 7.769531 11.695312 7.769531 Z M 11.695312 7.769531 "/>
</g>
</svg>
